<svg width="23" height="23" viewBox="0 0 23 23" fill="none" xmlns="http://www.w3.org/2000/svg">
<g clip-path="url(#clip0_162_2727)">
<path d="M17.8787 0.891238L6.19468 12.5752C5.74842 13.0191 5.39464 13.547 5.15381 14.1285C4.91299 14.71 4.7899 15.3335 4.79168 15.9629V17.25C4.79168 17.5042 4.89264 17.7479 5.07236 17.9276C5.25209 18.1074 5.49584 18.2083 5.75001 18.2083H7.03705C7.66645 18.2101 8.28995 18.087 8.87145 17.8462C9.45295 17.6054 9.98091 17.2516 10.4248 16.8053L22.1088 5.12132C22.6688 4.5599 22.9833 3.79928 22.9833 3.00628C22.9833 2.21328 22.6688 1.45266 22.1088 0.891238C21.5392 0.346803 20.7816 0.0429687 19.9937 0.0429688C19.2058 0.0429688 18.4482 0.346803 17.8787 0.891238ZM20.7537 3.76624L9.06968 15.4502C8.5293 15.9873 7.79893 16.2897 7.03705 16.2917H6.70834V15.9629C6.71034 15.2011 7.01268 14.4707 7.54976 13.9303L19.2338 2.24632C19.4384 2.05078 19.7106 1.94166 19.9937 1.94166C20.2768 1.94166 20.549 2.05078 20.7537 2.24632C20.9549 2.44806 21.0679 2.72136 21.0679 3.00628C21.0679 3.2912 20.9549 3.56449 20.7537 3.76624Z" fill="#313131" fill-opacity="0.6"/>
<path d="M22.0417 8.60488C21.7875 8.60488 21.5437 8.70584 21.364 8.88556C21.1843 9.06529 21.0833 9.30904 21.0833 9.56321V14.375H17.25C16.4875 14.375 15.7562 14.6779 15.2171 15.2171C14.6779 15.7562 14.375 16.4875 14.375 17.25V21.0833H4.79167C4.02917 21.0833 3.2979 20.7804 2.75873 20.2413C2.21957 19.7021 1.91667 18.9708 1.91667 18.2083V4.79167C1.91667 4.02917 2.21957 3.2979 2.75873 2.75873C3.2979 2.21957 4.02917 1.91667 4.79167 1.91667H13.4569C13.7111 1.91667 13.9548 1.8157 14.1346 1.63598C14.3143 1.45626 14.4153 1.2125 14.4153 0.958333C14.4153 0.704168 14.3143 0.460412 14.1346 0.280689C13.9548 0.100967 13.7111 0 13.4569 0L4.79167 0C3.52131 0.0015217 2.30341 0.506845 1.40513 1.40513C0.506845 2.30341 0.0015217 3.5213 0 4.79167L0 18.2083C0.0015217 19.4787 0.506845 20.6966 1.40513 21.5949C2.30341 22.4932 3.52131 22.9985 4.79167 23H15.662C16.2916 23.0018 16.9152 22.8787 17.4969 22.6379C18.0786 22.3971 18.6067 22.0433 19.0507 21.597L21.596 19.0498C22.0424 18.6059 22.3963 18.078 22.6373 17.4965C22.8783 16.915 23.0015 16.2915 23 15.662V9.56321C23 9.30904 22.899 9.06529 22.7193 8.88556C22.5396 8.70584 22.2958 8.60488 22.0417 8.60488ZM17.6956 20.2419C17.3104 20.6262 16.8232 20.8922 16.2917 21.0086V17.25C16.2917 16.9958 16.3926 16.7521 16.5724 16.5724C16.7521 16.3926 16.9958 16.2917 17.25 16.2917H21.0115C20.8929 16.8221 20.6272 17.3084 20.2448 17.6947L17.6956 20.2419Z" fill="#313131" fill-opacity="0.6"/>
</g>
<defs>
<clipPath id="clip0_162_2727">
<rect width="23" height="23" fill="white"/>
</clipPath>
</defs>
</svg>
