<svg width="17" height="17" viewBox="0 0 17 17" fill="none" xmlns="http://www.w3.org/2000/svg">
<g clip-path="url(#clip0_137_1572)">
<path d="M13.2148 0.659208L4.57876 9.29521C4.24892 9.62327 3.98743 10.0135 3.80943 10.4433C3.63143 10.8731 3.54045 11.334 3.54176 11.7992V12.7505C3.54176 12.9383 3.61639 13.1185 3.74923 13.2513C3.88207 13.3842 4.06223 13.4588 4.2501 13.4588H5.20139C5.66659 13.4601 6.12744 13.3691 6.55725 13.1911C6.98706 13.0131 7.37729 12.7516 7.70535 12.4218L16.3413 3.78579C16.7553 3.37083 16.9878 2.80863 16.9878 2.2225C16.9878 1.63637 16.7553 1.07417 16.3413 0.659208C15.9204 0.256799 15.3604 0.0322266 14.7781 0.0322266C14.1957 0.0322266 13.6357 0.256799 13.2148 0.659208ZM15.3398 2.78421L6.70376 11.4202C6.30435 11.8172 5.76452 12.0406 5.20139 12.0421H4.95843V11.7992C4.9599 11.236 5.18337 10.6962 5.58035 10.2968L14.2163 1.66079C14.3676 1.51626 14.5688 1.43561 14.7781 1.43561C14.9873 1.43561 15.1885 1.51626 15.3398 1.66079C15.4885 1.80991 15.572 2.01191 15.572 2.2225C15.572 2.43309 15.4885 2.63509 15.3398 2.78421Z" fill="#313131" fill-opacity="0.6"/>
<path d="M16.2917 6.36013C16.1038 6.36013 15.9236 6.43475 15.7908 6.56759C15.658 6.70043 15.5833 6.8806 15.5833 7.06846V10.625H12.75C12.1864 10.625 11.6459 10.8489 11.2474 11.2474C10.8489 11.6459 10.625 12.1864 10.625 12.75V15.5833H3.54167C2.97808 15.5833 2.43758 15.3595 2.03907 14.9609C1.64055 14.5624 1.41667 14.0219 1.41667 13.4583V3.54167C1.41667 2.97808 1.64055 2.43758 2.03907 2.03906C2.43758 1.64055 2.97808 1.41667 3.54167 1.41667H9.94642C10.1343 1.41667 10.3144 1.34204 10.4473 1.2092C10.5801 1.07636 10.6548 0.896195 10.6548 0.708333C10.6548 0.520472 10.5801 0.340304 10.4473 0.207466C10.3144 0.0746278 10.1343 0 9.94642 0L3.54167 0C2.6027 0.00112473 1.70252 0.374625 1.03857 1.03857C0.374625 1.70252 0.00112473 2.6027 0 3.54167L0 13.4583C0.00112473 14.3973 0.374625 15.2975 1.03857 15.9614C1.70252 16.6254 2.6027 16.9989 3.54167 17H11.5763C12.0416 17.0013 12.5026 16.9104 12.9325 16.7324C13.3624 16.5544 13.7528 16.2929 14.081 15.963L15.9623 14.0803C16.2922 13.7522 16.5538 13.362 16.7319 12.9322C16.91 12.5024 17.0011 12.0415 17 11.5763V7.06846C17 6.8806 16.9254 6.70043 16.7925 6.56759C16.6597 6.43475 16.4795 6.36013 16.2917 6.36013ZM13.0794 14.9614C12.7946 15.2455 12.4346 15.4421 12.0417 15.5281V12.75C12.0417 12.5621 12.1163 12.382 12.2491 12.2491C12.382 12.1163 12.5621 12.0417 12.75 12.0417H15.5302C15.4426 12.4337 15.2462 12.7932 14.9635 13.0787L13.0794 14.9614Z" fill="#313131" fill-opacity="0.6"/>
</g>
<defs>
<clipPath id="clip0_137_1572">
<rect width="17" height="17" fill="white"/>
</clipPath>
</defs>
</svg>
