<svg width="25" height="25" viewBox="0 0 25 25" fill="none" xmlns="http://www.w3.org/2000/svg">
<g clip-path="url(#clip0_221_2698)">
<path d="M19.7917 25.0001H5.20833C2.33646 25.0001 0 22.6636 0 19.7917V10.1292C0 8.39484 0.858333 6.78026 2.29583 5.81151L9.58646 0.890674C11.3562 -0.303076 13.6437 -0.303076 15.4135 0.890674L22.7052 5.81151C24.1417 6.78026 25 8.3938 25 10.1292V19.7917C25 22.6636 22.6635 25.0001 19.7917 25.0001ZM12.5 2.08026C11.8917 2.08026 11.2833 2.25942 10.7521 2.6188L3.46042 7.53859C2.59792 8.11984 2.08333 9.08755 2.08333 10.1282V19.7907C2.08333 21.5136 3.48542 22.9157 5.20833 22.9157H19.7917C21.5146 22.9157 22.9167 21.5136 22.9167 19.7907V10.1292C22.9167 9.08859 22.4021 8.11984 21.5406 7.53963L14.2479 2.6188C13.7167 2.25942 13.1083 2.08026 12.5 2.08026Z" fill="#666666"/>
</g>
<defs>
<clipPath id="clip0_221_2698">
<rect width="25" height="25" fill="white"/>
</clipPath>
</defs>
</svg>
