<svg width="25" height="25" viewBox="0 0 25 25" fill="none" xmlns="http://www.w3.org/2000/svg">
<path d="M23.4375 10.9375H1.5625C0.699561 10.9375 0 11.6371 0 12.5C0 13.3629 0.699561 14.0625 1.5625 14.0625H23.4375C24.3004 14.0625 25 13.3629 25 12.5C25 11.6371 24.3004 10.9375 23.4375 10.9375Z" fill="#666666"/>
<path d="M1.5625 6.77075H23.4375C24.3004 6.77075 25 6.07119 25 5.20825C25 4.34531 24.3004 3.64575 23.4375 3.64575H1.5625C0.699561 3.64575 0 4.34531 0 5.20825C0 6.07119 0.699561 6.77075 1.5625 6.77075Z" fill="#666666"/>
<path d="M23.4375 18.229H1.5625C0.699561 18.229 0 18.9286 0 19.7915C0 20.6544 0.699561 21.354 1.5625 21.354H23.4375C24.3004 21.354 25 20.6544 25 19.7915C25 18.9286 24.3004 18.229 23.4375 18.229Z" fill="#666666"/>
</svg>
