<svg width="25" height="25" viewBox="0 0 25 25" fill="none" xmlns="http://www.w3.org/2000/svg">
<g clip-path="url(#clip0_221_2702)">
<path d="M23.4947 14.2313L21.5155 7.1105C20.9354 5.02439 19.6746 3.19205 17.9336 1.90474C16.1926 0.617431 14.0712 -0.0509714 11.9067 0.00577873C9.74213 0.0625288 7.65868 0.841175 5.98749 2.21795C4.31629 3.59472 3.15326 5.49061 2.68325 7.60425L1.15096 14.4949C0.981707 15.2563 0.98562 16.046 1.16241 16.8056C1.3392 17.5653 1.68436 18.2756 2.1724 18.884C2.66044 19.4924 3.2789 19.9835 3.98212 20.3209C4.68534 20.6583 5.45536 20.8334 6.23534 20.8334H7.39575C7.63483 22.0108 8.2736 23.0693 9.20382 23.8296C10.134 24.59 11.2985 25.0053 12.4999 25.0053C13.7013 25.0053 14.8658 24.59 15.796 23.8296C16.7262 23.0693 17.365 22.0108 17.6041 20.8334H18.477C19.2799 20.8335 20.072 20.6479 20.7913 20.2912C21.5107 19.9344 22.1378 19.4162 22.6237 18.777C23.1096 18.1378 23.4411 17.3949 23.5924 16.6064C23.7437 15.8178 23.7096 15.005 23.4947 14.2313ZM12.4999 22.9168C11.8559 22.9141 11.2284 22.7125 10.7034 22.3396C10.1783 21.9667 9.78126 21.4406 9.56659 20.8334H15.4333C15.2186 21.4406 14.8216 21.9667 14.2965 22.3396C13.7714 22.7125 13.1439 22.9141 12.4999 22.9168ZM20.9645 17.5157C20.6742 17.9008 20.2982 18.2129 19.8662 18.4271C19.4342 18.6414 18.9582 18.752 18.476 18.7501H6.23534C5.7674 18.75 5.30546 18.6448 4.88361 18.4424C4.46176 18.2399 4.09076 17.9452 3.79801 17.5802C3.50525 17.2151 3.29821 16.789 3.19217 16.3333C3.08613 15.8775 3.0838 15.4037 3.18534 14.947L4.71659 8.05529C5.0857 6.39509 5.9992 4.90592 7.31185 3.82451C8.62451 2.7431 10.261 2.13151 11.9611 2.08697C13.6613 2.04243 15.3276 2.5675 16.695 3.5787C18.0625 4.5899 19.0527 6.0292 19.5083 7.66779L21.4874 14.7886C21.6182 15.2526 21.639 15.7406 21.5483 16.214C21.4575 16.6874 21.2576 17.1331 20.9645 17.5157Z" fill="#666666"/>
</g>
<defs>
<clipPath id="clip0_221_2702">
<rect width="25" height="25" fill="white"/>
</clipPath>
</defs>
</svg>
