<svg width="17" height="17" viewBox="0 0 20 20" fill="none" xmlns="http://www.w3.org/2000/svg">
<g clip-path="url(#clip0_149_4051)">
<path d="M20 11.6667V15.8333C20 18.1308 18.1308 20 15.8333 20H4.16667C1.86917 20 0 18.1308 0 15.8333V6.66667C0 4.36917 1.86917 2.5 4.16667 2.5H7.5C7.96 2.5 8.33333 2.8725 8.33333 3.33333C8.33333 3.79417 7.96 4.16667 7.5 4.16667H4.16667C3.23417 4.16667 2.42833 4.68583 1.99917 5.445L8.32167 11.7675C9.26667 12.7117 10.9125 12.7117 11.8575 11.7675L12.1317 11.4933C12.4575 11.1692 12.9842 11.1683 13.31 11.4933C13.635 11.82 13.635 12.3467 13.31 12.6725L13.0358 12.9458C12.2492 13.7317 11.2033 14.1658 10.09 14.1658C8.97667 14.1658 7.93083 13.7317 7.14417 12.945L1.66833 7.46917V15.8325C1.66833 17.2108 2.79 18.3325 4.16833 18.3325H15.835C17.2133 18.3325 18.335 17.2108 18.335 15.8325V11.6658C18.335 11.205 18.7083 10.8325 19.1683 10.8325C19.6283 10.8325 20.0017 11.205 20.0017 11.6658L20 11.6667ZM10 5C10 2.2425 12.2425 0 15 0C17.7575 0 20 2.2425 20 5C20 7.7575 17.7575 10 15 10C12.2425 10 10 7.7575 10 5ZM11.6667 5C11.6667 6.83833 13.1617 8.33333 15 8.33333C16.8383 8.33333 18.3333 6.83833 18.3333 5C18.3333 3.16167 16.8383 1.66667 15 1.66667C13.1617 1.66667 11.6667 3.16167 11.6667 5ZM15.2442 6.4225C15.4067 6.585 15.62 6.66667 15.8333 6.66667C16.0467 6.66667 16.26 6.585 16.4225 6.4225C16.7483 6.09667 16.7483 5.57 16.4225 5.24417L15.8333 4.655V3.33333C15.8333 2.8725 15.46 2.5 15 2.5C14.54 2.5 14.1667 2.8725 14.1667 3.33333V5C14.1667 5.22167 14.2542 5.43333 14.4108 5.58917L15.2442 6.4225Z" fill="#313131"/>
</g>
<defs>
<clipPath id="clip0_149_4051">
<rect width="20" height="20" fill="white"/>
</clipPath>
</defs>
</svg>
