<svg width="49" height="62" viewBox="0 0 49 62" fill="none" xmlns="http://www.w3.org/2000/svg">
<path d="M31.5815 61.9804C40.4501 62.495 48.2245 52.8199 48.9461 40.3706C49.6676 27.9213 43.0631 17.412 34.1944 16.8974C29.8053 16.6427 25.6843 18.8837 22.5535 22.7216C25.9172 27.0643 27.8531 33.4855 27.445 40.5274C27.0805 46.8156 24.9167 52.396 21.7213 56.313C24.3043 59.6477 27.7293 61.7569 31.5815 61.9804Z" fill="#8048C8"/>
<path d="M10.3735 59.5774C5.09181 59.8798 0.461827 54.193 0.0321119 46.8754C-0.397604 39.5579 3.53568 33.3807 8.81734 33.0782C11.4312 32.9285 13.8855 34.2457 15.75 36.5016C13.7468 39.0542 12.5939 42.8285 12.8369 46.9676C13.054 50.6637 14.3426 53.9438 16.2456 56.2461C14.7073 58.2063 12.6676 59.446 10.3735 59.5774Z" fill="#8048C8"/>
<path d="M17.5839 27.7278C17.5839 30.2959 15.5 32.3778 12.9293 32.3778C10.3587 32.3778 8.27477 30.2959 8.27477 27.7278C8.27477 25.1597 10.3587 23.0778 12.9293 23.0778C15.5 23.0778 17.5839 25.1597 17.5839 27.7278Z" fill="#8048C8"/>
<path d="M33.7887 8.09445C33.7887 12.5649 30.1612 16.1889 25.6863 16.1889C21.2115 16.1889 17.5839 12.5649 17.5839 8.09445C17.5839 3.62401 21.2115 0 25.6863 0C30.1612 0 33.7887 3.62401 33.7887 8.09445Z" fill="#8048C8"/>
</svg>
